<svg width="1928" height="1396" viewBox="0 0 1928 1396" fill="none" xmlns="http://www.w3.org/2000/svg">
<rect width="1928" height="1396" fill="#F5F5F5"/>
<g clip-path="url(#clip0_0_1)" filter="url(#filter0_d_0_1)">
<rect width="1920" height="1388" transform="translate(4)" fill="url(#paint0_linear_0_1)"/>
<path d="M710 881.55L-153.466 890H-274.953C-276.088 884.658 -256.555 868.531 -230.089 861.528C-209.534 856.088 -174.638 858.413 -174.638 858.413L-153.466 844.928C-153.466 844.928 -129.937 826.463 -123.221 824.157C-97.0077 815.161 -69.7866 824.157 -69.7866 824.157C-69.7866 824.157 -57.721 798.227 -44.5819 785.008C-36.1189 776.493 -31.8943 769.863 -19.8813 765.878C-7.90369 761.904 0.602203 762.711 12.8849 765.878C24.6826 768.919 31.1424 772.69 39.6018 780.559C44.5636 785.174 50.1878 793.905 50.1878 793.905L75.8495 826.827L99.542 765.878L111.136 749.42C111.136 749.42 129.089 735.312 143.949 732.957C156.544 730.961 165.583 727.48 179.693 728.066C190.53 728.516 196.659 729.832 206.914 732.957C215.586 735.599 228.133 741.854 228.133 741.854L246.28 754.756C246.28 754.756 251.892 763.166 254.346 768.992C256.8 774.818 257.572 781.436 259.387 789.457C263.875 809.288 268.461 840.618 268.461 840.618C268.461 840.618 280.492 822.702 291.145 813.48C299.774 806.01 304.547 800.81 315.845 797.02C324.226 794.208 338.529 793.905 338.529 793.905C351.273 792.882 359.134 792.904 372.257 793.905C381.595 794.618 395.996 797.02 395.996 797.02L413.135 809.031C419.922 815.18 422.169 819.799 427.754 826.827C437.38 838.938 437.883 845.205 451.447 858.413C465.01 871.621 499.628 824.157 532.559 824.157C570.87 824.157 591.034 844.928 591.034 844.928C591.034 844.928 612.206 882.507 645.476 861.528C678.746 840.548 710 881.55 710 881.55Z" fill="#FFF8EE"/>
<path d="M1792 932.988L1151.06 938H1049.04C1048.09 934.239 1064.49 922.883 1086.72 917.952C1103.98 914.122 1127.1 916.188 1133.28 915.759C1139.31 915.341 1145.34 911.1 1151.06 906.264C1156.79 901.427 1187.69 831.563 1237.52 827.422C1269.57 824.759 1294.67 829.915 1315.15 850.603C1330.14 865.748 1333.3 898.53 1333.3 898.53C1333.3 898.53 1351.44 856.865 1354.27 850.603C1360.07 837.764 1377.65 821.368 1377.65 821.368L1406.89 807.942C1406.89 807.942 1483.96 795.216 1521.82 815.494C1551.49 831.387 1574.24 876.747 1574.24 876.747C1574.24 876.747 1580.94 870.057 1591.76 870.337C1599.92 870.549 1604.96 869.935 1612.5 872.53C1618.86 874.717 1626.9 880.988 1626.9 880.988C1632.6 885.317 1639.17 893.518 1639.17 893.518C1639.17 893.518 1645.52 910.434 1659.07 915.759C1672.62 921.084 1705.23 895.149 1736.12 898.53C1748.77 899.915 1756.81 900.867 1767.45 906.264C1781.51 913.4 1792 932.988 1792 932.988Z" fill="#FFF8EE"/>
<path d="M153.31 964.344C136.614 966.853 47.3742 964.344 5 964.344V1435L1230 1425.51V1048.7H1176.07C1141.4 1048.7 1110.58 1053.66 996.942 1048.7C883.302 1043.73 929.528 1045.39 840.928 1038.77C752.327 1032.16 696.104 1041.79 586.682 1012.31C488.451 985.845 469.19 906.377 378.664 891.57C297.767 878.338 230.354 952.766 153.31 964.344Z" fill="#AD7669"/>
<path d="M1894.5 873.419C1923.89 875.44 1942 873.419 1942 873.419V1428H899V1150.1C899 1150.1 922.582 1153.99 945.49 1150.1C968.399 1146.21 1003.54 1142.64 1038.47 1131.77C1074.48 1120.56 1125.39 1093.43 1125.39 1093.43L1244.65 1041.76C1256.77 1035.1 1382.09 991.76 1382.09 991.76C1382.09 991.76 1444.73 971.211 1483.16 955.091C1527.32 936.567 1546.65 917.615 1592.31 901.754C1642.6 884.288 1727.74 873.419 1727.74 873.419C1727.74 873.419 1783.9 858.761 1820.72 860.085C1850.19 861.144 1865.11 871.397 1894.5 873.419Z" fill="#49405B"/>
<path d="M90.3991 1000L-6.71587 1005.63H-43V1561H-6.71587H742.652H1234V1216.88C1213.74 1212.63 1192.23 1210.09 1148.1 1204.9L1142.73 1204.27C1094.95 1198.64 1072.34 1197.83 1008.11 1183.36C943.88 1168.88 916.647 1158.03 873.485 1139.53C830.323 1121.03 818.505 1119.83 772.259 1107.76C726.014 1095.7 712.141 1094.49 648.939 1086.85C585.737 1079.21 563.128 1082.43 508.661 1076C454.195 1069.56 417.199 1059.51 362.732 1041.82C308.266 1024.13 230.676 1023.32 216.803 1018.9C205.704 1015.36 127.909 1004.83 90.3991 1000Z" fill="#73688B"/>
<path d="M-6.71587 1561H742.652M-6.71587 1005.63L90.3991 1000C127.909 1004.83 205.704 1015.36 216.803 1018.9C230.676 1023.32 308.266 1024.13 362.732 1041.82C417.199 1059.51 454.195 1069.56 508.662 1076C563.128 1082.43 585.737 1079.21 648.939 1086.85C712.141 1094.49 726.014 1095.7 772.259 1107.76C818.505 1119.83 830.323 1121.03 873.485 1139.53C916.647 1158.03 943.88 1168.88 1008.11 1183.36C1072.34 1197.83 1094.95 1198.64 1142.73 1204.27C1190.52 1209.9 1212.93 1212.46 1234 1216.88V1561H-43V1005.63H-6.71587Z" stroke="#73688B"/>
<path d="M259.55 1094.66C224.626 1082.6 73.8038 1044.14 -7 1042V1561H742V1229.39C698.859 1197.64 610.019 1141.2 569.754 1129.63C519.423 1115.16 297.244 1107.67 259.55 1094.66Z" fill="#352C47"/>
<path d="M42.6221 1322.23C42.6221 1322.23 -22.4059 1289.14 -34 1278.38V1467H2060V1287.07C2025.39 1257.15 2013.72 1210.22 1983.88 1185.73C1963.21 1165.87 1934.62 1178 1908.27 1164.22C1880.79 1149.85 1880.98 1124.67 1850.8 1114.58C1810.9 1101.24 1785.41 1133.89 1742.42 1131.54C1681.95 1128.25 1661.2 1086.06 1601.28 1078.6C1522.74 1068.81 1475.16 1087.95 1402.66 1114.58C1319.51 1145.14 1217.66 1231.23 1217.66 1231.23C1217.66 1231.23 1166.75 1273.42 1124.4 1278.38C1081.95 1283.36 1018.54 1254.39 1018.54 1254.39C1018.54 1254.39 1000.4 1239.92 933.857 1213.03C867.317 1186.14 864.796 1185.73 836.567 1185.73C808.338 1185.73 751.376 1220.47 751.376 1220.47C751.376 1220.47 692.397 1278.38 648.037 1305.27C606.145 1330.66 588.266 1347.4 547.722 1337.95C518.882 1331.22 514.677 1310.44 490.256 1296.17C466.132 1282.07 444.888 1274.66 424.22 1265.56C403.552 1256.46 354.655 1254.39 354.655 1254.39C354.655 1254.39 322.845 1258.7 304.246 1265.56C276.23 1275.89 242.243 1305.27 242.243 1305.27L174.19 1344.15C174.19 1344.15 124.095 1363.97 93.5353 1356.15C69.086 1349.89 54.2162 1328.43 42.6221 1322.23Z" fill="#190F30"/>
</g>
<defs>
<filter id="filter0_d_0_1" x="0" y="0" width="1928" height="1396" filterUnits="userSpaceOnUse" color-interpolation-filters="sRGB">
<feFlood flood-opacity="0" result="BackgroundImageFix"/>
<feColorMatrix in="SourceAlpha" type="matrix" values="0 0 0 0 0 0 0 0 0 0 0 0 0 0 0 0 0 0 127 0" result="hardAlpha"/>
<feOffset dy="4"/>
<feGaussianBlur stdDeviation="2"/>
<feComposite in2="hardAlpha" operator="out"/>
<feColorMatrix type="matrix" values="0 0 0 0 0 0 0 0 0 0 0 0 0 0 0 0 0 0 0.25 0"/>
<feBlend mode="normal" in2="BackgroundImageFix" result="effect1_dropShadow_0_1"/>
<feBlend mode="normal" in="SourceGraphic" in2="effect1_dropShadow_0_1" result="shape"/>
</filter>
<linearGradient id="paint0_linear_0_1" x1="914" y1="-72.613" x2="892.53" y2="1407.8" gradientUnits="userSpaceOnUse">
<stop stop-color="#F6A192"/>
<stop offset="0.40625" stop-color="#F7DCD8"/>
</linearGradient>
<clipPath id="clip0_0_1">
<rect width="1920" height="1388" fill="white" transform="translate(4)"/>
</clipPath>
</defs>
</svg>
